<svg width="172" height="36" viewBox="0 0 172 36" fill="none" xmlns="http://www.w3.org/2000/svg">
<g clip-path="url(#clip0_0_27)">
<path fill-rule="evenodd" clip-rule="evenodd" d="M33.3073 14.449L17.3681 23.6615C17.3681 23.6615 16.6544 17.8824 20.5288 14.9589C23.7234 12.5453 31.2682 8.5 31.2682 8.5" fill="white"/>
<path fill-rule="evenodd" clip-rule="evenodd" d="M4.89479 24.0352C5.26863 25.3609 5.8124 26.6187 6.52609 27.8765C6.83196 28.4204 7.17181 28.9303 7.51167 29.4063L1.19039 33.0777C1.19039 33.0777 0.51068 27.2986 4.38501 24.4091C4.52095 24.3071 4.69088 24.1711 4.89479 24.0352Z" fill="#F16623"/>
<path fill-rule="evenodd" clip-rule="evenodd" d="M41.972 13.7343C43.1615 20.8731 39.2192 29.6096 32.592 33.451C24.0617 38.3802 13.1524 35.4567 8.2245 26.9241C3.29662 18.3575 6.21936 7.44532 14.7497 2.51614C23.28 -2.41303 34.1893 0.510479 39.1172 9.04306C39.1852 9.17903 39.8649 10.3688 39.8989 10.6408L32.9998 14.6181C32.8639 14.3462 32.4221 13.2584 32.2861 13.0204C29.5333 8.26119 23.246 6.11954 18.4881 8.83909C13.7301 11.5926 11.691 18.3575 14.4438 23.1167C17.1966 27.8759 24.2316 30.1195 28.9556 27.4C30.4849 26.5161 33.3397 24.3745 34.5972 21.145C36.3304 16.6918 37.9957 15.332 41.972 13.7343Z" fill="white"/>
<path d="M57.8091 29.0997H53.6289C53.357 29.0997 53.1191 28.8617 53.1191 28.5897V5.4736C53.1191 5.20164 53.357 4.96368 53.6289 4.96368H57.8091C58.081 4.96368 58.3189 5.20164 58.3189 5.4736V28.5897C58.3189 28.8617 58.081 29.0997 57.8091 29.0997ZM68.8884 9.14498H57.1974C56.9255 9.14498 56.6876 8.90702 56.6876 8.63507V5.4396C56.6876 5.16765 56.9255 4.92969 57.1974 4.92969H68.8884C69.1602 4.92969 69.3981 5.16765 69.3981 5.4396V8.63507C69.3981 8.94102 69.1602 9.14498 68.8884 9.14498ZM67.2231 18.7314H57.1634C56.8915 18.7314 56.6536 18.4934 56.6536 18.2215V15.196C56.6536 14.924 56.8915 14.6861 57.1634 14.6861H67.2231C67.495 14.6861 67.7329 14.924 67.7329 15.196V18.2215C67.7668 18.4934 67.5289 18.7314 67.2231 18.7314ZM68.8884 29.0997H57.1634C56.8915 29.0997 56.6536 28.8617 56.6536 28.5897V25.4283C56.6536 25.1563 56.8915 24.9184 57.1634 24.9184H68.8884C69.1602 24.9184 69.3981 25.1563 69.3981 25.4283V28.5897C69.3981 28.8617 69.1942 29.0997 68.8884 29.0997Z" fill="#F16623"/>
<path d="M71.166 19.9888C71.166 18.1531 71.4379 16.5554 71.9817 15.1956C72.5254 13.8358 73.3411 12.748 74.3606 11.9661C75.4142 11.1843 76.6717 10.8103 78.201 10.8103C79.5944 10.8103 80.7839 11.2182 81.7355 12.0001C82.6871 12.816 83.4347 13.9038 83.9785 15.2976C84.5223 16.6913 84.8961 18.2551 85.1 19.9888C85.1 20.0228 85.1 20.0228 85.1 20.0568V20.3967C85.1 20.4307 85.1 20.4307 85.1 20.4647C84.8961 22.1304 84.5223 23.6262 83.9785 24.986C83.4347 26.3457 82.6871 27.4335 81.7355 28.2154C80.7839 29.0313 79.5944 29.4052 78.167 29.4052C76.6716 29.4052 75.4142 28.9973 74.3606 28.2154C73.3071 27.4335 72.5254 26.3457 71.9817 24.986C71.4379 23.6262 71.166 22.0624 71.166 20.3287V19.9888ZM76.1959 20.3287C76.1959 21.2466 76.2978 22.0964 76.5017 22.8783C76.7056 23.6262 77.0455 24.2381 77.5213 24.68C77.9971 25.1219 78.6428 25.3599 79.4585 25.3599C80.2401 25.3599 80.9198 25.1899 81.4296 24.816C81.9394 24.442 82.3132 23.9661 82.5851 23.3202C82.857 22.6743 82.9929 21.9605 83.0609 21.1106V21.0766V19.3769C83.0269 18.663 82.9589 18.0171 82.789 17.4732C82.6191 16.9293 82.4152 16.4534 82.1093 16.0454C81.8034 15.6375 81.4636 15.3656 81.0218 15.1616C80.58 14.9576 80.0702 14.8556 79.4924 14.8556C78.7108 14.8556 78.065 15.0936 77.5553 15.5355C77.0795 15.9775 76.7056 16.5894 76.5017 17.3712C76.2978 18.1531 76.1619 19.0029 76.1619 19.9888V20.3287H76.1959ZM82.9589 3.60352H86.9692C87.2411 3.60352 87.479 3.84148 87.479 4.11343V28.5554C87.479 28.8273 87.2411 29.0653 86.9692 29.0653H83.4008C83.1289 29.0653 82.925 28.8613 82.891 28.6233L82.4492 25.1559C82.4492 25.1219 82.4492 25.1219 82.4492 25.0879V4.14742C82.4492 3.84148 82.6871 3.60352 82.9589 3.60352Z" fill="white"/>
<path d="M103.079 21.0427C103.385 21.0427 103.623 21.2807 103.623 21.5867C103.589 22.9804 103.317 24.2382 102.909 25.36C102.434 26.6178 101.686 27.6376 100.7 28.3515C99.7147 29.0654 98.4572 29.4393 96.9619 29.4393C95.1946 29.4393 93.7673 28.9294 92.6458 27.8756C91.5582 26.8558 90.9805 25.1221 90.9805 22.7425V11.6603C90.9805 11.3884 91.2184 11.1504 91.4902 11.1504H95.4665C95.7384 11.1504 95.9763 11.3884 95.9763 11.6603V22.8104C95.9763 23.4223 96.0783 23.8983 96.2822 24.3062C96.4861 24.6801 96.758 24.9521 97.1318 25.1221C97.5057 25.292 97.9135 25.394 98.3893 25.394C99.3409 25.394 100.123 25.1901 100.666 24.8161C101.21 24.4422 101.618 23.9323 101.822 23.2864C101.992 22.7765 102.128 22.1986 102.162 21.5527C102.162 21.2807 102.4 21.0767 102.671 21.0767L103.079 21.0427ZM102.162 11.1504H106.138C106.41 11.1504 106.648 11.3884 106.648 11.6603V28.5895C106.648 28.8614 106.41 29.0994 106.138 29.0994H102.434C102.162 29.0994 101.924 28.8954 101.924 28.6235L101.618 24.7821V24.7481V11.6603C101.618 11.3884 101.856 11.1504 102.162 11.1504Z" fill="white"/>
<path d="M114.635 36.0015H110.658C110.386 36.0015 110.148 35.7635 110.148 35.4916V11.6616C110.148 11.3896 110.386 11.1517 110.658 11.1517H114.329C114.601 11.1517 114.804 11.3556 114.838 11.6276L115.144 14.5851C115.144 14.6191 115.144 14.6191 115.144 14.6531V35.5256C115.178 35.7975 114.94 36.0015 114.635 36.0015ZM126.461 20.2961C126.461 22.0298 126.19 23.5936 125.646 24.9873C125.102 26.3811 124.32 27.4689 123.301 28.2508C122.281 29.0667 120.99 29.4406 119.46 29.4406C117.999 29.4406 116.776 29.0327 115.824 28.2508C114.872 27.4349 114.159 26.3811 113.615 25.0213C113.105 23.6616 112.731 22.1658 112.493 20.5341C112.493 20.5001 112.493 20.4661 112.493 20.4661V20.0242C112.493 19.9902 112.493 19.9902 112.493 19.9562C112.731 18.2225 113.071 16.6587 113.615 15.299C114.125 13.9052 114.872 12.8514 115.824 12.0355C116.776 11.2536 117.965 10.8457 119.426 10.8457C120.956 10.8457 122.213 11.2196 123.267 11.9675C124.32 12.7154 125.102 13.8032 125.646 15.163C126.19 16.5228 126.461 18.1205 126.461 19.9562V20.2961ZM121.432 19.9222C121.432 18.9364 121.33 18.0865 121.092 17.3386C120.888 16.5907 120.514 15.9788 120.038 15.5369C119.562 15.095 118.917 14.891 118.101 14.891C117.489 14.891 116.946 14.993 116.504 15.197C116.062 15.4009 115.722 15.6729 115.416 16.0468C115.144 16.4208 114.94 16.8967 114.77 17.4406C114.635 17.9845 114.567 18.6304 114.533 19.3443V21.146V21.18C114.567 21.9958 114.702 22.7097 114.94 23.3556C115.178 24.0015 115.552 24.5114 116.062 24.8854C116.572 25.2593 117.251 25.4293 118.101 25.4293C118.917 25.4293 119.562 25.1913 120.038 24.7154C120.514 24.2395 120.854 23.6276 121.058 22.8457C121.262 22.0638 121.364 21.214 121.364 20.2961V19.9222H121.432Z" fill="white"/>
<path d="M128.533 19.955C128.533 18.2213 128.873 16.6576 129.518 15.2638C130.164 13.87 131.15 12.7822 132.407 12.0003C133.665 11.2185 135.228 10.8105 137.029 10.8105C138.864 10.8105 140.428 11.2185 141.685 12.0003C142.943 12.7822 143.928 13.87 144.574 15.2638C145.22 16.6576 145.559 18.2213 145.559 19.955V20.295C145.559 22.0287 145.22 23.5924 144.574 24.9862C143.928 26.38 142.943 27.4678 141.685 28.2496C140.428 29.0315 138.864 29.4394 137.029 29.4394C135.194 29.4394 133.665 29.0315 132.373 28.2496C131.082 27.4678 130.13 26.38 129.45 24.9862C128.771 23.5924 128.465 22.0287 128.465 20.295V19.955H128.533ZM133.563 20.329C133.563 21.2808 133.665 22.1307 133.903 22.9125C134.14 23.6944 134.514 24.3063 135.024 24.7482C135.534 25.1902 136.247 25.4281 137.097 25.4281C137.947 25.4281 138.66 25.1902 139.17 24.7482C139.68 24.3063 140.054 23.6944 140.292 22.9125C140.53 22.1307 140.632 21.2808 140.632 20.329V19.989C140.632 19.0712 140.53 18.2213 140.292 17.4394C140.054 16.6576 139.68 16.0457 139.17 15.5698C138.66 15.0938 137.947 14.8559 137.063 14.8559C136.214 14.8559 135.5 15.0938 134.99 15.5698C134.48 16.0457 134.106 16.6576 133.903 17.4394C133.665 18.2213 133.563 19.0712 133.563 19.989V20.329Z" fill="white"/>
<path d="M153.004 29.1007H149.027C148.755 29.1007 148.518 28.8627 148.518 28.5907V11.6616C148.518 11.3896 148.755 11.1517 149.027 11.1517H152.732C153.004 11.1517 153.242 11.3556 153.242 11.6276L153.513 15.265V15.299V28.5907C153.513 28.8627 153.276 29.1007 153.004 29.1007ZM158.781 15.299C158.781 15.6049 158.509 15.8429 158.203 15.8089C158.101 15.8089 158 15.7749 157.898 15.7749C157.558 15.7409 157.252 15.7409 157.014 15.7409C156.13 15.7409 155.417 15.8769 154.873 16.1488C154.295 16.4208 153.887 16.8287 153.615 17.3386C153.411 17.7126 153.31 18.1205 153.208 18.6304C153.174 18.9703 152.8 19.1743 152.494 19.0383C152.29 18.9703 152.188 18.7664 152.188 18.5624C152.222 17.1347 152.426 15.8769 152.766 14.7551C153.174 13.5313 153.751 12.5794 154.533 11.8995C155.315 11.2196 156.232 10.8457 157.354 10.8457C157.592 10.8457 157.864 10.8457 158.169 10.8797C158.271 10.8797 158.373 10.9137 158.441 10.9137C158.679 10.9477 158.849 11.1856 158.849 11.4236L158.781 15.299Z" fill="white"/>
<path d="M170.302 14.7871H160.752C160.48 14.7871 160.242 14.5492 160.242 14.2772V11.6596C160.242 11.3877 160.48 11.1497 160.752 11.1497H170.302C170.574 11.1497 170.812 11.3877 170.812 11.6596V14.2772C170.812 14.5832 170.608 14.7871 170.302 14.7871ZM167.277 6.73047C167.549 6.73047 167.787 6.96843 167.787 7.24038V23.4897C167.787 23.9656 167.855 24.3395 167.991 24.6115C168.127 24.8834 168.331 25.0534 168.603 25.1554C168.874 25.2574 169.214 25.2914 169.622 25.2914C169.928 25.2914 170.2 25.2914 170.404 25.2574H170.438C170.744 25.2234 171.016 25.4613 171.016 25.7673V28.5548C171.016 28.7928 170.846 28.9968 170.642 29.0647C170.336 29.1667 170.03 29.2347 169.69 29.2687C169.214 29.3367 168.671 29.3707 168.059 29.3707C166.971 29.3707 166.054 29.2007 165.272 28.8268C164.49 28.4528 163.879 27.8749 163.437 27.0931C162.995 26.3112 162.791 25.2574 162.791 23.9656V7.24038C162.791 6.96843 163.029 6.73047 163.301 6.73047H167.277Z" fill="white"/>
</g>
<defs>
<clipPath id="clip0_0_27">
<rect width="172" height="36" fill="white"/>
</clipPath>
</defs>
</svg>
