<svg width="192" height="18" viewBox="0 0 192 18" fill="none" xmlns="http://www.w3.org/2000/svg">
<g clip-path="url(#clip0_0_97)">
<path d="M26.5806 1.18125C26.116 -0.39375 23.884 -0.39375 23.4194 1.18125L23.3069 1.56375C23.2375 1.79954 23.1161 2.01681 22.9518 2.19961C22.7875 2.38242 22.5843 2.52613 22.3573 2.6202C22.1302 2.71427 21.8849 2.75632 21.6395 2.74326C21.394 2.73021 21.1546 2.66238 20.9387 2.54475L20.59 2.3535C19.1466 1.56825 17.5682 3.14663 18.3546 4.58887L18.5448 4.93875C19.0465 5.86125 18.5706 7.00987 17.5638 7.30687L17.1812 7.41937C15.6062 7.884 15.6062 10.116 17.1812 10.5806L17.5638 10.6931C17.7995 10.7625 18.0168 10.8839 18.1996 11.0482C18.3824 11.2125 18.5261 11.4157 18.6202 11.6427C18.7143 11.8698 18.7563 12.1151 18.7433 12.3605C18.7302 12.606 18.6624 12.8454 18.5448 13.0612L18.3535 13.41C17.5682 14.8534 19.1466 16.4317 20.5889 15.6454L20.9387 15.4552C21.1546 15.3376 21.394 15.2698 21.6395 15.2567C21.8849 15.2437 22.1302 15.2857 22.3573 15.3798C22.5843 15.4739 22.7875 15.6176 22.9518 15.8004C23.1161 15.9832 23.2375 16.2005 23.3069 16.4362L23.4194 16.8188C23.884 18.3937 26.116 18.3937 26.5806 16.8188L26.6931 16.4362C26.7625 16.2005 26.8839 15.9832 27.0482 15.8004C27.2125 15.6176 27.4157 15.4739 27.6427 15.3798C27.8698 15.2857 28.1151 15.2437 28.3605 15.2567C28.606 15.2698 28.8454 15.3376 29.0612 15.4552L29.41 15.6465C30.8534 16.4317 32.4317 14.8534 31.6454 13.4111L31.4552 13.0612C31.3376 12.8454 31.2698 12.606 31.2567 12.3605C31.2437 12.1151 31.2857 11.8698 31.3798 11.6427C31.4739 11.4157 31.6176 11.2125 31.8004 11.0482C31.9832 10.8839 32.2005 10.7625 32.4362 10.6931L32.8188 10.5806C34.3937 10.116 34.3937 7.884 32.8188 7.41937L32.4362 7.30687C32.2005 7.23745 31.9832 7.11613 31.8004 6.95182C31.6176 6.7875 31.4739 6.58434 31.3798 6.35726C31.2857 6.13017 31.2437 5.88491 31.2567 5.63945C31.2698 5.394 31.3376 5.15458 31.4552 4.93875L31.6465 4.59C32.4317 3.14663 30.8534 1.56825 29.4111 2.35462L29.0612 2.54475C28.8454 2.66238 28.606 2.73021 28.3605 2.74326C28.1151 2.75632 27.8698 2.71427 27.6427 2.6202C27.4157 2.52613 27.2125 2.38242 27.0482 2.19961C26.8839 2.01681 26.7625 1.79954 26.6931 1.56375L26.5806 1.18125ZM25 12.2963C24.1258 12.2963 23.2874 11.949 22.6692 11.3308C22.051 10.7126 21.7038 9.87422 21.7038 9C21.7038 8.12578 22.051 7.28737 22.6692 6.6692C23.2874 6.05103 24.1258 5.70375 25 5.70375C25.8739 5.70375 26.712 6.05091 27.33 6.66887C27.948 7.28683 28.2951 8.12495 28.2951 8.99887C28.2951 9.8728 27.948 10.7109 27.33 11.3289C26.712 11.9468 25.8739 12.294 25 12.294V12.2963Z" fill="#747579"/>
</g>
<path d="M102.019 14.0783C102.022 14.073 102.028 14.0678 102.031 14.0625C103.182 12.6932 103.875 10.9283 103.875 9C103.875 7.07168 103.182 5.30684 102.033 3.9375C102.029 3.93223 102.024 3.92871 102.021 3.92344C102.001 3.90059 101.984 3.87949 101.964 3.8584C101.957 3.84961 101.95 3.84258 101.943 3.83379L101.871 3.75117L101.869 3.74941C101.843 3.71953 101.815 3.68965 101.788 3.65977L101.787 3.65801C101.73 3.59824 101.674 3.53848 101.616 3.48047L101.614 3.47871L101.53 3.39434L101.525 3.38906C101.498 3.3627 101.472 3.33809 101.446 3.31348C101.437 3.30469 101.428 3.2959 101.418 3.28711C101.4 3.26953 101.382 3.25371 101.365 3.23789C101.36 3.23262 101.353 3.22734 101.347 3.22031C99.9445 1.91953 98.0654 1.125 96 1.125C93.9346 1.125 92.0555 1.91953 90.651 3.22031C90.6457 3.22559 90.6387 3.23086 90.6334 3.23789C90.6158 3.25371 90.5982 3.27129 90.5807 3.28887C90.5719 3.29766 90.5631 3.30645 90.5525 3.31523C90.5262 3.33984 90.4998 3.36621 90.4734 3.39082L90.4682 3.39609L90.3838 3.48047L90.382 3.48223C90.324 3.54023 90.2678 3.6 90.2115 3.65977L90.2098 3.66152C90.1816 3.69141 90.1553 3.72129 90.1289 3.75117L90.1271 3.75293C90.1025 3.7793 90.0779 3.80742 90.0551 3.83555C90.048 3.84434 90.041 3.85137 90.034 3.86016C90.0146 3.88125 89.9971 3.9041 89.9777 3.9252C89.9742 3.93047 89.9689 3.93398 89.9654 3.93926C88.8176 5.30684 88.125 7.07168 88.125 9C88.125 10.9283 88.8176 12.6932 89.9672 14.0625C89.9707 14.0678 89.976 14.073 89.9795 14.0783L90.034 14.1434C90.041 14.1521 90.048 14.1592 90.0551 14.168L90.1271 14.2506C90.1271 14.2523 90.1289 14.2523 90.1289 14.2541C90.1553 14.284 90.1816 14.3139 90.2098 14.342L90.2115 14.3438C90.2678 14.4035 90.324 14.4633 90.3803 14.5213L90.382 14.523C90.4102 14.5512 90.4365 14.5793 90.4646 14.6057L90.4699 14.6109C90.5279 14.6689 90.5877 14.7252 90.6475 14.7797C92.0555 16.0805 93.9346 16.875 96 16.875C98.0654 16.875 99.9445 16.0805 101.349 14.7797C101.409 14.7248 101.468 14.6685 101.525 14.6109L101.53 14.6057C101.558 14.5775 101.586 14.5512 101.613 14.523L101.614 14.5213C101.672 14.4633 101.729 14.4035 101.783 14.3438L101.785 14.342C101.811 14.3121 101.839 14.284 101.866 14.2541C101.866 14.2523 101.868 14.2523 101.868 14.2506C101.892 14.2242 101.917 14.1961 101.94 14.168C101.947 14.1592 101.954 14.1521 101.961 14.1434C101.981 14.1222 102 14.1005 102.019 14.0783ZM102.091 11.5717C101.848 12.1447 101.528 12.6756 101.138 13.1572C100.699 12.7774 100.218 12.4478 99.7055 12.1746C99.9094 11.3502 100.036 10.4449 100.069 9.49219H102.592C102.539 10.2111 102.37 10.909 102.091 11.5717ZM102.592 8.50781H100.069C100.036 7.55508 99.9094 6.6498 99.7055 5.82539C100.221 5.55117 100.7 5.2207 101.138 4.84277C101.986 5.88687 102.494 7.16614 102.592 8.50781ZM98.5717 2.90918C99.2695 3.20449 99.9041 3.6123 100.463 4.12559C100.138 4.40208 99.7888 4.64804 99.4189 4.86035C99.143 4.06934 98.7896 3.38203 98.3783 2.83184C98.4434 2.85645 98.5084 2.88281 98.5717 2.90918ZM96.9791 15.2244C96.8174 15.351 96.6557 15.4477 96.4922 15.5127V12.252C97.1897 12.3006 97.8756 12.4559 98.526 12.7125C98.3801 13.1449 98.2113 13.5439 98.0162 13.9043C97.7104 14.4738 97.3518 14.9291 96.9791 15.2244ZM98.0162 4.0957C98.2096 4.45781 98.3801 4.85684 98.526 5.2875C97.8756 5.54406 97.1897 5.69939 96.4922 5.74805V2.48906C96.6539 2.5541 96.8174 2.64902 96.9791 2.77734C97.3518 3.0709 97.7104 3.52617 98.0162 4.0957ZM96.4922 11.2658V9.49219H99.085C99.0568 10.2691 98.9602 11.0232 98.7984 11.7387L98.7932 11.7598C98.0555 11.48 97.2797 11.3135 96.4922 11.2658ZM96.4922 8.50781V6.73418C97.2973 6.68496 98.0707 6.51445 98.7932 6.24023L98.7984 6.26133C98.9602 6.97676 99.0568 7.7291 99.085 8.50781H96.4922ZM95.5078 9.49219V11.2658C94.7027 11.315 93.9293 11.4855 93.2068 11.7598L93.2016 11.7387C93.0398 11.0232 92.9432 10.2709 92.915 9.49219H95.5078ZM92.915 8.50781C92.9432 7.73086 93.0398 6.97676 93.2016 6.26133L93.2068 6.24023C93.9293 6.51445 94.701 6.68496 95.5078 6.73418V8.50781H92.915ZM95.5078 12.252V15.5109C95.3461 15.4459 95.1826 15.351 95.0209 15.2227C94.6482 14.9291 94.2879 14.4721 93.982 13.9025C93.7887 13.5404 93.6182 13.1414 93.4723 12.7107C94.1262 12.4541 94.8064 12.3012 95.5078 12.252ZM95.5078 5.74805C94.8103 5.69939 94.1244 5.54406 93.474 5.2875C93.6199 4.85508 93.7887 4.45605 93.9838 4.0957C94.2896 3.52617 94.6482 3.06914 95.0227 2.77559C95.1844 2.64902 95.3461 2.55234 95.5096 2.4873V5.74805H95.5078ZM93.4283 2.90918C93.4934 2.88281 93.5566 2.85645 93.6217 2.83184C93.2104 3.38203 92.857 4.06934 92.5811 4.86035C92.2119 4.64941 91.8621 4.40332 91.5369 4.12559C92.0959 3.6123 92.7305 3.20449 93.4283 2.90918ZM89.9092 6.42832C90.1518 5.85527 90.4717 5.32441 90.8619 4.84277C91.2996 5.2207 91.7795 5.55117 92.2945 5.82539C92.0906 6.6498 91.9641 7.55508 91.9307 8.50781H89.4082C89.4609 7.78887 89.6297 7.09102 89.9092 6.42832ZM89.4082 9.49219H91.9307C91.9641 10.4449 92.0906 11.3502 92.2945 12.1746C91.7819 12.4478 91.3014 12.7774 90.8619 13.1572C90.0136 12.1131 89.5062 10.8339 89.4082 9.49219ZM93.4283 15.0908C92.7305 14.7955 92.0959 14.3877 91.5369 13.8744C91.8621 13.5967 92.2119 13.3523 92.5811 13.1396C92.857 13.9307 93.2104 14.618 93.6217 15.1682C93.5566 15.1436 93.4916 15.1172 93.4283 15.0908ZM98.5717 15.0908C98.5066 15.1172 98.4434 15.1436 98.3783 15.1682C98.7896 14.618 99.143 13.9307 99.4189 13.1396C99.7881 13.3506 100.138 13.5967 100.463 13.8744C99.9072 14.3856 99.2674 14.7971 98.5717 15.0908Z" fill="#747579"/>
<path d="M166.438 1.125V9H167.562V1.125H166.438Z" fill="#747579"/>
<path d="M161.375 9.91294C161.375 8.90828 161.644 7.92188 162.154 7.05632C162.664 6.19075 163.397 5.47762 164.276 4.99106L163.73 4.00781C162.426 4.73014 161.397 5.86404 160.805 7.23249C160.213 8.60094 160.091 10.1269 160.457 11.5722C160.824 13.0175 161.658 14.3008 162.831 15.2217C164.004 16.1425 165.448 16.6492 166.939 16.6626C168.43 16.676 169.884 16.1953 171.073 15.2956C172.262 14.3959 173.12 13.1278 173.512 11.6894C173.904 10.2509 173.81 8.72294 173.242 7.34408C172.675 5.96522 171.667 4.81305 170.375 4.06744L169.812 5.04056C170.667 5.53408 171.377 6.24404 171.871 7.09908C172.365 7.95412 172.625 8.92411 172.625 9.91155C172.626 10.899 172.366 11.8691 171.872 12.7243C171.379 13.5795 170.669 14.2897 169.814 14.7836C168.959 15.2774 167.989 15.5375 167.001 15.5376C166.014 15.5377 165.044 15.2779 164.188 14.7843C163.333 14.2907 162.623 13.5806 162.129 12.7255C161.635 11.8704 161.375 10.9004 161.375 9.91294Z" fill="#747579"/>
<defs>
<clipPath id="clip0_0_97">
<rect width="18" height="18" fill="white" transform="translate(16)"/>
</clipPath>
</defs>
</svg>
