<svg width="17" height="9" viewBox="0 0 17 9" fill="none" xmlns="http://www.w3.org/2000/svg">
<path fill-rule="evenodd" clip-rule="evenodd" d="M7.69856 0.331786C7.91107 0.119344 8.19925 0 8.49973 0C8.80022 0 9.0884 0.119344 9.30091 0.331786L16.8333 7.86305C16.9397 7.96944 16.9995 8.11374 16.9995 8.2642C16.9995 8.41466 16.9397 8.55896 16.8333 8.66536C16.7269 8.77175 16.5826 8.83152 16.4321 8.83152C16.2817 8.83152 16.1374 8.77175 16.031 8.66536L8.49973 1.13296L0.96847 8.66536C0.862078 8.77175 0.717779 8.83152 0.567317 8.83152C0.416855 8.83152 0.272556 8.77175 0.166163 8.66536C0.0597707 8.55896 0 8.41466 0 8.2642C0 8.11374 0.0597707 7.96944 0.166163 7.86305L7.69856 0.331786Z" fill="#066AC9"/>
</svg>
