<svg width="11" height="6" viewBox="0 0 11 6" fill="none" xmlns="http://www.w3.org/2000/svg">
<path d="M11 0.731864C11 0.808283 10.9633 0.875885 10.8898 0.934669L5.75351 5.04369C5.68003 5.10247 5.59552 5.13186 5.5 5.13186C5.40448 5.13186 5.31997 5.10247 5.24649 5.04369L0.11022 0.934669C0.0367401 0.875885 0 0.808283 0 0.731864C0 0.655444 0.0367401 0.587842 0.11022 0.529058L0.661323 0.0881764C0.734803 0.0293921 0.819305 0 0.91483 0C1.01035 0 1.09486 0.0293921 1.16834 0.0881764L5.5 3.55351L9.83166 0.0881764C9.90514 0.0293921 9.98965 0 10.0852 0C10.1807 0 10.2652 0.0293921 10.3387 0.0881764L10.8898 0.529058C10.9633 0.587842 11 0.655444 11 0.731864Z" fill="#066AC9"/>
</svg>
