<svg width="11" height="5" viewBox="0 0 11 5" fill="none" xmlns="http://www.w3.org/2000/svg">
<path d="M10.7207 4.28672C10.7207 4.21224 10.6849 4.14635 10.6133 4.08906L5.60742 0.0843749C5.53581 0.0270834 5.45345 -0.0015626 5.36035 -0.0015626C5.26725 -0.0015626 5.1849 0.0270834 5.11328 0.0843749L0.107422 4.08906C0.0358073 4.14635 0 4.21224 0 4.28672C0 4.3612 0.0358073 4.42708 0.107422 4.48438L0.644531 4.91406C0.716146 4.97135 0.798503 5 0.891602 5C0.984701 5 1.06706 4.97135 1.13867 4.91406L5.36035 1.53672L9.58203 4.91406C9.65365 4.97135 9.736 5 9.8291 5C9.9222 5 10.0046 4.97135 10.0762 4.91406L10.6133 4.48438C10.6849 4.42708 10.7207 4.3612 10.7207 4.28672Z" fill="#066AC9"/>
</svg>
