<svg width="14" height="15" viewBox="0 0 14 15" fill="none" xmlns="http://www.w3.org/2000/svg">
<path fill-rule="evenodd" clip-rule="evenodd" d="M0 13.2692V5.76923H1.15385V13.2692C1.15385 13.4222 1.21463 13.569 1.32282 13.6772C1.43102 13.7854 1.57776 13.8462 1.73077 13.8462H12.1154C12.2684 13.8462 12.4151 13.7854 12.5233 13.6772C12.6315 13.569 12.6923 13.4222 12.6923 13.2692V5.76923H13.8462V13.2692C13.8462 13.7283 13.6638 14.1685 13.3392 14.4931C13.0146 14.8177 12.5744 15 12.1154 15H1.73077C1.27174 15 0.831513 14.8177 0.506931 14.4931C0.182348 14.1685 0 13.7283 0 13.2692ZM12.6923 0.576923V4.61538L10.3846 2.30769V0.576923C10.3846 0.423914 10.4454 0.277171 10.5536 0.168977C10.6618 0.0607829 10.8085 0 10.9615 0H12.1154C12.2684 0 12.4151 0.0607829 12.5233 0.168977C12.6315 0.277171 12.6923 0.423914 12.6923 0.576923Z" fill="#066AC9"/>
</svg>
