<svg width="18" height="17" viewBox="0 0 18 17" fill="none" xmlns="http://www.w3.org/2000/svg">
<path d="M6.47662 0.0800139C6.54001 0.117973 6.5953 0.168048 6.63934 0.22738C6.68337 0.286711 6.71528 0.354136 6.73325 0.425804C6.75122 0.497471 6.75489 0.571976 6.74406 0.645063C6.73323 0.718151 6.70811 0.788388 6.67013 0.851764L3.80587 5.62514H14.1941L11.3287 0.851764C11.2521 0.723764 11.2294 0.570545 11.2657 0.425814C11.302 0.281083 11.3942 0.156695 11.5222 0.0800139C11.6502 0.00333316 11.8035 -0.019359 11.9482 0.0169293C12.0929 0.0532175 12.2173 0.145514 12.294 0.273514L15.5059 5.62514H16.875C17.1734 5.62514 17.4595 5.74367 17.6705 5.95464C17.8815 6.16562 18 6.45177 18 6.75014V7.87514C18 8.17351 17.8815 8.45966 17.6705 8.67063C17.4595 8.88161 17.1734 9.00014 16.875 9.00014V14.0626C16.875 14.8086 16.5787 15.5239 16.0512 16.0514C15.5238 16.5788 14.8084 16.8751 14.0625 16.8751H3.9375C3.19158 16.8751 2.47621 16.5788 1.94876 16.0514C1.42132 15.5239 1.125 14.8086 1.125 14.0626V9.00014C0.826631 9.00014 0.540483 8.88161 0.329505 8.67063C0.118526 8.45966 0 8.17351 0 7.87514V6.75014C0 6.45177 0.118526 6.16562 0.329505 5.95464C0.540483 5.74367 0.826631 5.62514 1.125 5.62514H2.49412L5.70375 0.273514C5.74171 0.210125 5.79178 0.154835 5.85112 0.110802C5.91045 0.0667698 5.97787 0.0348575 6.04954 0.0168885C6.12121 -0.00108056 6.19571 -0.0047543 6.2688 0.00607691C6.34189 0.0169081 6.41212 0.0420321 6.4755 0.0800139H6.47662ZM2.25 9.00014V14.0626C2.25 14.5102 2.42779 14.9394 2.74426 15.2559C3.06072 15.5723 3.48995 15.7501 3.9375 15.7501H14.0625C14.5101 15.7501 14.9393 15.5723 15.2557 15.2559C15.5722 14.9394 15.75 14.5102 15.75 14.0626V9.00014H2.25ZM1.125 6.75014V7.87514H16.875V6.75014H1.125ZM4.5 10.1251C4.64918 10.1251 4.79226 10.1844 4.89775 10.2899C5.00324 10.3954 5.0625 10.5385 5.0625 10.6876V14.0626C5.0625 14.2118 5.00324 14.3549 4.89775 14.4604C4.79226 14.5659 4.64918 14.6251 4.5 14.6251C4.35082 14.6251 4.20774 14.5659 4.10225 14.4604C3.99676 14.3549 3.9375 14.2118 3.9375 14.0626V10.6876C3.9375 10.5385 3.99676 10.3954 4.10225 10.2899C4.20774 10.1844 4.35082 10.1251 4.5 10.1251ZM6.75 10.1251C6.89918 10.1251 7.04226 10.1844 7.14775 10.2899C7.25324 10.3954 7.3125 10.5385 7.3125 10.6876V14.0626C7.3125 14.2118 7.25324 14.3549 7.14775 14.4604C7.04226 14.5659 6.89918 14.6251 6.75 14.6251C6.60082 14.6251 6.45774 14.5659 6.35225 14.4604C6.24676 14.3549 6.1875 14.2118 6.1875 14.0626V10.6876C6.1875 10.5385 6.24676 10.3954 6.35225 10.2899C6.45774 10.1844 6.60082 10.1251 6.75 10.1251ZM9 10.1251C9.14918 10.1251 9.29226 10.1844 9.39775 10.2899C9.50324 10.3954 9.5625 10.5385 9.5625 10.6876V14.0626C9.5625 14.2118 9.50324 14.3549 9.39775 14.4604C9.29226 14.5659 9.14918 14.6251 9 14.6251C8.85082 14.6251 8.70774 14.5659 8.60225 14.4604C8.49676 14.3549 8.4375 14.2118 8.4375 14.0626V10.6876C8.4375 10.5385 8.49676 10.3954 8.60225 10.2899C8.70774 10.1844 8.85082 10.1251 9 10.1251ZM11.25 10.1251C11.3992 10.1251 11.5423 10.1844 11.6477 10.2899C11.7532 10.3954 11.8125 10.5385 11.8125 10.6876V14.0626C11.8125 14.2118 11.7532 14.3549 11.6477 14.4604C11.5423 14.5659 11.3992 14.6251 11.25 14.6251C11.1008 14.6251 10.9577 14.5659 10.8523 14.4604C10.7468 14.3549 10.6875 14.2118 10.6875 14.0626V10.6876C10.6875 10.5385 10.7468 10.3954 10.8523 10.2899C10.9577 10.1844 11.1008 10.1251 11.25 10.1251ZM13.5 10.1251C13.6492 10.1251 13.7923 10.1844 13.8977 10.2899C14.0032 10.3954 14.0625 10.5385 14.0625 10.6876V14.0626C14.0625 14.2118 14.0032 14.3549 13.8977 14.4604C13.7923 14.5659 13.6492 14.6251 13.5 14.6251C13.3508 14.6251 13.2077 14.5659 13.1023 14.4604C12.9968 14.3549 12.9375 14.2118 12.9375 14.0626V10.6876C12.9375 10.5385 12.9968 10.3954 13.1023 10.2899C13.2077 10.1844 13.3508 10.1251 13.5 10.1251Z" fill="white"/>
</svg>
