<svg viewBox="0 0 22 14" width="24" height="24"><path d="M16.7047 0C16.5291 0 16.3608 0.0697315 16.2367 0.193853C16.1126 0.317975 16.0428 0.486319 16.0428 0.661854C16.0428 0.837389 16.1126 1.00573 16.2367 1.12986C16.3608 1.25398 16.5291 1.32371 16.7047 1.32371C16.8802 1.32371 17.0486 1.25398 17.1727 1.12986C17.2968 1.00573 17.3665 0.837389 17.3665 0.661854C17.3665 0.486319 17.2968 0.317975 17.1727 0.193853C17.0486 0.0697315 16.8802 0 16.7047 0ZM0.323782 1.98556V6.61854H1.31656V3.2162C1.64264 3.13721 1.96995 3.06175 2.29383 2.97576C2.62476 2.88575 2.93952 3.13074 2.96732 3.41269L2.97249 6.61854H3.96527L3.96657 4.96391L3.97044 4.13659L3.96657 3.72293L3.96398 3.51352C3.95838 3.41702 3.94659 3.32132 3.92391 3.22654C4.26345 3.14452 4.60404 3.06529 4.94125 2.97576C5.27218 2.88508 5.58694 3.1314 5.61474 3.41269L5.61991 6.61854H6.61269L6.61398 4.96391L6.61786 4.13659L6.61398 3.72293L6.6114 3.51352C6.60544 3.41093 6.59455 3.30904 6.56874 3.20844C6.47145 2.80537 6.19694 2.45924 5.84484 2.26995C5.49604 2.07603 5.05232 2.05113 4.69823 2.17688C4.32368 2.30458 3.95193 2.44274 3.58005 2.5802C3.46868 2.45659 3.34192 2.34764 3.19742 2.26995C2.84862 2.07603 2.4049 2.05113 2.05081 2.17688C1.80484 2.26074 1.56127 2.35334 1.31656 2.44188V1.98556H0.323782ZM8.59696 1.98556L7.60547 1.98686L7.60676 3.58849C7.60081 4.1332 7.59536 4.63226 7.61323 5.21469C7.64169 5.62107 7.86232 5.99124 8.15486 6.22686C8.44939 6.46579 8.81089 6.5915 9.16962 6.61466C9.51511 6.64312 9.92058 6.53806 10.1727 6.38715C10.1994 6.37336 10.2251 6.35735 10.2516 6.3432V6.49832H11.2444V1.98686H10.2516V5.5301C10.1116 5.57863 9.97036 5.62479 9.83277 5.67876C9.59979 5.77738 9.44971 5.79434 9.24718 5.77183C8.86728 5.7255 8.57767 5.42306 8.60084 5.16427C8.60679 4.6798 8.60881 4.11006 8.59955 3.5872L8.59696 1.98556ZM16.2083 1.98556V6.61854H17.2011V1.98556H16.2083ZM20.1626 1.98815C19.9276 2.0013 19.6926 2.05482 19.4775 2.14715C18.6038 2.5297 18.174 3.42945 18.1938 4.23095C18.2005 4.60689 18.2598 5.00069 18.4252 5.3892C18.5973 5.76579 18.9015 6.14165 19.3185 6.35742C19.7288 6.57914 20.1929 6.64189 20.6099 6.61079C20.8614 6.5863 21.106 6.54272 21.3377 6.46859V5.79122C20.7486 5.88388 20.1661 5.88376 19.7955 5.63093C19.3785 5.37215 19.18 4.81764 19.1866 4.21932C19.1734 3.6766 19.4385 3.15866 19.8886 2.91112C20.3121 2.68279 20.8611 2.77549 21.3377 3.10244V2.28805C21.1854 2.19605 21.0264 2.1226 20.8477 2.067C20.6326 2.00214 20.3976 1.97499 20.1626 1.98815ZM13.8621 1.9959C13.6871 2.01161 13.5127 2.04554 13.3424 2.09932C12.758 2.28331 12.34 2.6774 12.2824 3.08047C12.1752 3.83432 12.7272 4.27593 12.9985 4.39771C13.2699 4.54464 13.5142 4.60885 13.7393 4.67305C14.1959 4.78226 14.4859 4.9058 14.5911 5.06861C14.6487 5.15796 14.6726 5.22611 14.6726 5.34525C14.6726 5.46438 14.6458 5.57096 14.52 5.64774C14.2619 5.78871 13.8185 5.84011 13.4148 5.7951C13.0111 5.75671 12.4953 5.57746 12.0717 5.40471V6.11569C12.4622 6.35859 12.8786 6.48747 13.3088 6.56425C13.8184 6.63441 14.3421 6.67948 14.9311 6.42335C15.2157 6.30818 15.5606 6.05066 15.5606 5.35042C15.5606 4.61973 15.0304 4.2986 14.7656 4.1702C14.5009 4.03584 14.2564 3.97148 14.0314 3.90132C13.813 3.8305 13.2364 3.73652 13.2364 3.23947C13.2364 3.03231 13.4549 2.91684 13.6203 2.86588C14.1763 2.68056 14.8316 2.82308 15.381 3.10503V2.28547C14.9193 2.06408 14.3869 1.94878 13.8621 1.9959ZM20.4134 8.60411C19.6781 8.60411 18.8049 8.78974 18.1615 9.25303C17.9775 9.39202 17.9771 9.5775 18.2068 9.5775C18.9421 9.48484 20.5972 9.25231 20.9188 9.66928C21.1948 10.0399 20.5976 11.6168 20.3216 12.3581C20.2296 12.5897 20.4142 12.6354 20.5982 12.4964C21.8392 11.4301 22.1613 9.25179 21.931 8.97381C21.7933 8.74283 21.1487 8.60411 20.4134 8.60411ZM0.133758 9.10825C0.0968593 9.11545 0.0622878 9.13498 0.0368064 9.16642C-0.0207749 9.23724 -0.00945099 9.34282 0.0613674 9.4004C1.42479 10.5044 2.96785 11.346 4.59998 12.0013C6.23741 12.6353 7.97356 13.0701 9.75262 13.1893C11.5323 13.3117 13.3209 13.1446 15.0384 12.7058C16.7572 12.261 18.3948 11.5771 19.8601 10.538C19.9879 10.4479 20.0375 10.2764 19.97 10.1295C19.8932 9.96335 19.6966 9.89178 19.5305 9.96789L19.5046 9.97952C18.0055 10.6698 16.3754 11.1545 14.7592 11.4881C13.1363 11.8256 11.4736 11.9542 9.82889 11.8966C8.18021 11.8297 6.54249 11.5014 4.9322 11.0434C3.33449 10.5536 1.74249 9.937 0.253977 9.13152L0.243636 9.12506C0.209551 9.10653 0.170656 9.10106 0.133758 9.10825Z" fill="url(#paint0_linear_1070_27987)"></path><defs><linearGradient id="paint0_linear_1070_27987" x1="11" y1="0" x2="11" y2="13.2283" gradientUnits="userSpaceOnUse"><stop stop-color="#4200FF"></stop><stop offset="0.5" stop-color="#3A0DBC"></stop><stop offset="1" stop-color="#2C2170"></stop></linearGradient></defs></svg>