<svg viewBox="0 0 22 15" width="24" height="24"><path d="M14.1381 2.189V10.2764C14.1381 10.5889 14.014 10.8887 13.7929 11.1097C13.5719 11.3308 13.2721 11.4549 12.9596 11.4549C12.647 11.4549 12.3472 11.3308 12.1262 11.1097C11.9052 10.8887 11.781 10.5889 11.781 10.2764V7.99464C11.7373 7.81792 11.6347 7.66134 11.4902 7.55067C11.3456 7.44001 11.1677 7.38186 10.9857 7.38579C10.8037 7.38972 10.6284 7.45551 10.4888 7.57231C10.3492 7.68911 10.2535 7.84998 10.2174 8.02843H10.2143V10.1341C10.2143 10.4467 10.0901 10.7465 9.86909 10.9675C9.64806 11.1885 9.34829 11.3127 9.03571 11.3127C8.72314 11.3127 8.42336 11.1885 8.20234 10.9675C7.98131 10.7465 7.85714 10.4467 7.85714 10.1341V7.27414C7.81988 7.09328 7.72137 6.93082 7.57823 6.81416C7.43509 6.6975 7.25609 6.6338 7.07143 6.6338C6.88677 6.6338 6.70777 6.6975 6.56463 6.81416C6.42149 6.93082 6.32297 7.09328 6.28571 7.27414V12.9501C6.28571 13.2627 6.16154 13.5625 5.94052 13.7835C5.71949 14.0045 5.41972 14.1287 5.10714 14.1287C4.79457 14.1287 4.49479 14.0045 4.27377 13.7835C4.05274 13.5625 3.92857 13.2627 3.92857 12.9501V8.78193C3.90756 8.59362 3.81346 8.42108 3.66651 8.30147C3.51956 8.18185 3.33151 8.12471 3.14286 8.14236C2.95408 8.12472 2.76593 8.18197 2.61896 8.30175C2.47199 8.42153 2.37796 8.59426 2.35714 8.78271V9.08836C2.35714 9.40093 2.23297 9.70071 2.01195 9.92173C1.79092 10.1428 1.49115 10.2669 1.17857 10.2669C0.865995 10.2669 0.56622 10.1428 0.345195 9.92173C0.12417 9.70071 0 9.40093 0 9.08836V5.44657C0 5.134 0.12417 4.83422 0.345195 4.6132C0.56622 4.39217 0.865995 4.268 1.17857 4.268C1.49115 4.268 1.79092 4.39217 2.01195 4.6132C2.23297 4.83422 2.35714 5.134 2.35714 5.44657V5.753C2.37815 5.94131 2.47226 6.11385 2.61921 6.23346C2.76616 6.35308 2.9542 6.41022 3.14286 6.39257C3.33164 6.4102 3.51978 6.35296 3.66676 6.23318C3.81373 6.1134 3.90775 5.94067 3.92857 5.75221V3.12793C3.92857 2.81535 4.05274 2.51558 4.27377 2.29455C4.49479 2.07353 4.79457 1.94936 5.10714 1.94936C5.41972 1.94936 5.71949 2.07353 5.94052 2.29455C6.16154 2.51558 6.28571 2.81535 6.28571 3.12793V4.23736C6.32297 4.41822 6.42149 4.58068 6.56463 4.69734C6.70777 4.814 6.88677 4.87771 7.07143 4.87771C7.25609 4.87771 7.43509 4.814 7.57823 4.69734C7.72137 4.58068 7.81988 4.41822 7.85714 4.23736V1.17857C7.85714 0.865995 7.98131 0.566221 8.20234 0.345196C8.42336 0.124171 8.72314 0 9.03571 0C9.34829 0 9.64806 0.124171 9.86909 0.345196C10.0901 0.566221 10.2143 0.865995 10.2143 1.17857V4.99793H10.2174C10.2535 5.17638 10.3492 5.33724 10.4888 5.45405C10.6284 5.57085 10.8037 5.63663 10.9857 5.64057C11.1677 5.6445 11.3456 5.58635 11.4902 5.47568C11.6347 5.36502 11.7373 5.20844 11.781 5.03172V2.189C11.781 1.87642 11.9052 1.57665 12.1262 1.35562C12.3472 1.1346 12.647 1.01043 12.9596 1.01043C13.2721 1.01043 13.5719 1.1346 13.7929 1.35562C14.014 1.57665 14.1381 1.87642 14.1381 2.189ZM16.8929 4.16586C16.7393 4.16461 16.587 4.19362 16.4447 4.25123C16.3024 4.30884 16.1728 4.39392 16.0634 4.50161C15.9539 4.6093 15.8668 4.7375 15.8069 4.87887C15.747 5.02025 15.7155 5.17204 15.7143 5.32557V9.94871C15.7143 10.2613 15.8385 10.5611 16.0595 10.7821C16.2805 11.0031 16.5803 11.1273 16.8929 11.1273C17.2054 11.1273 17.5052 11.0031 17.7262 10.7821C17.9473 10.5611 18.0714 10.2613 18.0714 9.94871V5.32557C18.0702 5.17204 18.0387 5.02025 17.9788 4.87887C17.9189 4.7375 17.8318 4.6093 17.7223 4.50161C17.6129 4.39392 17.4833 4.30884 17.341 4.25123C17.1987 4.19362 17.0464 4.16461 16.8929 4.16586ZM20.8214 6.51357C20.5115 6.51106 20.2132 6.63173 19.9922 6.84905C19.7712 7.06637 19.6456 7.36256 19.6429 7.6725V8.82514C19.6429 9.13772 19.767 9.43749 19.9881 9.65852C20.2091 9.87954 20.5089 10.0037 20.8214 10.0037C21.134 10.0037 21.4338 9.87954 21.6548 9.65852C21.8758 9.43749 22 9.13772 22 8.82514V7.6725C21.9973 7.36256 21.8716 7.06637 21.6506 6.84905C21.4296 6.63173 21.1314 6.51106 20.8214 6.51357V6.51357Z" fill="url(#paint0_linear_310_5863)"></path><defs><linearGradient id="paint0_linear_310_5863" x1="0" y1="0" x2="22" y2="13.75" gradientUnits="userSpaceOnUse"><stop stop-color="#FF9B55"></stop><stop offset="1" stop-color="#FF5724"></stop></linearGradient></defs></svg>