<svg viewBox="0 0 20 20" width="24" height="24"><path d="M19.2244 10.0551C19.2551 4.96527 15.1502 0.814253 10.0559 0.783567C4.96164 0.752881 0.80706 4.85415 0.776401 9.944C0.745741 15.0339 4.85061 19.1849 9.94489 19.2156C15.0392 19.2463 19.1937 15.145 19.2244 10.0551Z" fill="white"></path><path d="M14.464 9.168C13.776 9.168 13.216 9.76 13.216 10.488C13.216 11.216 13.776 11.808 14.464 11.808C15.152 11.808 15.712 11.216 15.712 10.488C15.712 9.76 15.152 9.168 14.464 9.168Z" fill="#2BC5B4"></path><path d="M10 0C4.48 0 0 4.48 0 10C0 15.52 4.48 20 10 20C15.52 20 20 15.52 20 10C20 4.48 15.52 0 10 0ZM7.632 10.568C7.632 15.672 -0.504 13.424 2.792 10.8C3.568 11.872 5.048 11.8 5.208 10.744L5.24 6.576C5.32 5.512 7.392 5.304 7.64 6.576V10.568H7.632ZM10.664 12.504C10.664 13.032 10.232 13.464 9.704 13.464H9.288C8.76 13.464 8.328 13.032 8.328 12.504V8.48C8.328 7.952 8.76 7.52 9.288 7.52H9.704C10.232 7.52 10.664 7.952 10.664 8.48V12.504ZM10.664 5.968C10.664 6.488 10.24 6.912 9.72 6.912H9.272C8.752 6.912 8.328 6.488 8.328 5.968V5.736C8.328 5.216 8.752 4.792 9.272 4.792H9.72C10.24 4.792 10.664 5.216 10.664 5.736V5.968ZM14.464 13.592C12.704 13.592 11.28 12.2 11.28 10.488C11.28 8.776 12.704 7.384 14.464 7.384C16.224 7.384 17.648 8.776 17.648 10.488C17.648 12.2 16.224 13.592 14.464 13.592Z" fill="#2BC5B4"></path></svg>